<?xml version="1.0" encoding="UTF-8" standalone="no"?><svg xmlns="http://www.w3.org/2000/svg" xmlns:xlink="http://www.w3.org/1999/xlink" contentStyleType="text/css" height="336px" preserveAspectRatio="none" style="width:405px;height:336px;background:#FFFFFF;" version="1.1" viewBox="0 0 405 336" width="405px" zoomAndPan="magnify"><defs/><g><rect fill="none" height="26.4883" id="_title" style="stroke:none;stroke-width:1.0;" width="124" x="139.5" y="10"/><text fill="#000000" font-family="sans-serif" font-size="14" font-weight="bold" lengthAdjust="spacing" textLength="114" x="144.5" y="28.5352">DNS常规解析路径</text><rect fill="none" height="46.6211" style="stroke:#000000;stroke-width:1.5;" width="254" x="61" y="120.2871"/><line style="stroke:#181818;stroke-width:0.5;stroke-dasharray:5.0,5.0;" x1="33" x2="33" y1="73.9766" y2="301.1504"/><line style="stroke:#181818;stroke-width:0.5;stroke-dasharray:5.0,5.0;" x1="127" x2="127" y1="73.9766" y2="301.1504"/><line style="stroke:#181818;stroke-width:0.5;stroke-dasharray:5.0,5.0;" x1="249" x2="249" y1="73.9766" y2="301.1504"/><line style="stroke:#181818;stroke-width:0.5;stroke-dasharray:5.0,5.0;" x1="357" x2="357" y1="73.9766" y2="301.1504"/><rect fill="#E2E2F0" height="30.4883" rx="2.5" ry="2.5" style="stroke:#181818;stroke-width:0.5;" width="56" x="5" y="42.4883"/><text fill="#000000" font-family="sans-serif" font-size="14" lengthAdjust="spacing" textLength="42" x="12" y="63.0234">浏览器</text><rect fill="#E2E2F0" height="30.4883" rx="2.5" ry="2.5" style="stroke:#181818;stroke-width:0.5;" width="56" x="5" y="300.1504"/><text fill="#000000" font-family="sans-serif" font-size="14" lengthAdjust="spacing" textLength="42" x="12" y="320.6855">浏览器</text><rect fill="#E2E2F0" height="30.4883" rx="2.5" ry="2.5" style="stroke:#181818;stroke-width:0.5;" width="112" x="71" y="42.4883"/><text fill="#000000" font-family="sans-serif" font-size="14" lengthAdjust="spacing" textLength="98" x="78" y="63.0234">本地DNS服务器</text><rect fill="#E2E2F0" height="30.4883" rx="2.5" ry="2.5" style="stroke:#181818;stroke-width:0.5;" width="112" x="71" y="300.1504"/><text fill="#000000" font-family="sans-serif" font-size="14" lengthAdjust="spacing" textLength="98" x="78" y="320.6855">本地DNS服务器</text><rect fill="#E2E2F0" height="30.4883" rx="2.5" ry="2.5" style="stroke:#181818;stroke-width:0.5;" width="112" x="193" y="42.4883"/><text fill="#000000" font-family="sans-serif" font-size="14" lengthAdjust="spacing" textLength="98" x="200" y="63.0234">权威DNS服务器</text><rect fill="#E2E2F0" height="30.4883" rx="2.5" ry="2.5" style="stroke:#181818;stroke-width:0.5;" width="112" x="193" y="300.1504"/><text fill="#000000" font-family="sans-serif" font-size="14" lengthAdjust="spacing" textLength="98" x="200" y="320.6855">权威DNS服务器</text><rect fill="#E2E2F0" height="30.4883" rx="2.5" ry="2.5" style="stroke:#181818;stroke-width:0.5;" width="84" x="315" y="42.4883"/><text fill="#000000" font-family="sans-serif" font-size="14" lengthAdjust="spacing" textLength="70" x="322" y="63.0234">网站服务器</text><rect fill="#E2E2F0" height="30.4883" rx="2.5" ry="2.5" style="stroke:#181818;stroke-width:0.5;" width="84" x="315" y="300.1504"/><text fill="#000000" font-family="sans-serif" font-size="14" lengthAdjust="spacing" textLength="70" x="322" y="320.6855">网站服务器</text><polygon fill="#181818" points="115,101.2871,125,105.2871,115,109.2871,119,105.2871" style="stroke:#181818;stroke-width:1.0;"/><line style="stroke:#181818;stroke-width:1.0;" x1="33" x2="121" y1="105.2871" y2="105.2871"/><text fill="#000000" font-family="sans-serif" font-size="13" lengthAdjust="spacing" textLength="63" x="40" y="100.5449">查询网站IP</text><path d="M61,120.2871 L135,120.2871 L135,127.5977 L125,137.5977 L61,137.5977 L61,120.2871 " fill="#EEEEEE" style="stroke:#000000;stroke-width:1.5;"/><rect fill="none" height="46.6211" style="stroke:#000000;stroke-width:1.5;" width="254" x="61" y="120.2871"/><text fill="#000000" font-family="sans-serif" font-size="13" font-weight="bold" lengthAdjust="spacing" textLength="29" x="76" y="133.8555">loop</text><polygon fill="#181818" points="237,154.9082,247,158.9082,237,162.9082,241,158.9082" style="stroke:#181818;stroke-width:1.0;"/><line style="stroke:#181818;stroke-width:1.0;" x1="127" x2="243" y1="158.9082" y2="158.9082"/><text fill="#000000" font-family="sans-serif" font-size="13" lengthAdjust="spacing" textLength="63" x="134" y="154.166">查询网站IP</text><polygon fill="#181818" points="138,191.2188,128,195.2188,138,199.2188,134,195.2188" style="stroke:#181818;stroke-width:1.0;"/><line style="stroke:#181818;stroke-width:1.0;" x1="132" x2="248" y1="195.2188" y2="195.2188"/><text fill="#000000" font-family="sans-serif" font-size="13" lengthAdjust="spacing" textLength="11" x="144" y="190.4766">IP</text><polygon fill="#181818" points="44,220.5293,34,224.5293,44,228.5293,40,224.5293" style="stroke:#181818;stroke-width:1.0;"/><line style="stroke:#181818;stroke-width:1.0;" x1="38" x2="126" y1="224.5293" y2="224.5293"/><text fill="#000000" font-family="sans-serif" font-size="13" lengthAdjust="spacing" textLength="11" x="50" y="219.7871">IP</text><polygon fill="#181818" points="345,249.8398,355,253.8398,345,257.8398,349,253.8398" style="stroke:#181818;stroke-width:1.0;"/><line style="stroke:#181818;stroke-width:1.0;" x1="33" x2="351" y1="253.8398" y2="253.8398"/><text fill="#000000" font-family="sans-serif" font-size="13" lengthAdjust="spacing" textLength="26" x="40" y="249.0977">请求</text><polygon fill="#181818" points="44,279.1504,34,283.1504,44,287.1504,40,283.1504" style="stroke:#181818;stroke-width:1.0;"/><line style="stroke:#181818;stroke-width:1.0;" x1="38" x2="356" y1="283.1504" y2="283.1504"/><text fill="#000000" font-family="sans-serif" font-size="13" lengthAdjust="spacing" textLength="26" x="50" y="278.4082">响应</text><!--MD5=[2b2b48c0557c1d2ae4b00581854fb645]
@startuml DNS-common

title DNS常规解析路径

浏览器 -> 本地DNS服务器 : 查询网站IP
loop
本地DNS服务器 -> 权威DNS服务器 : 查询网站IP
end 
本地DNS服务器 <- 权威DNS服务器 : IP
浏览器 <- 本地DNS服务器 : IP

浏览器 -> 网站服务器 : 请求
浏览器 <- 网站服务器 : 响应

@enduml

PlantUML version 1.2022.7(Tue Aug 23 01:01:30 CST 2022)
(GPL source distribution)
Java Runtime: OpenJDK Runtime Environment
JVM: OpenJDK 64-Bit Server VM
Default Encoding: UTF-8
Language: en
Country: CN
--></g></svg>